<svg xmlns="http://www.w3.org/2000/svg" xmlns:xlink="http://www.w3.org/1999/xlink" width="156" zoomAndPan="magnify" viewBox="0 0 116.88 30.000001" height="40" preserveAspectRatio="xMidYMid meet" version="1.0"><defs><g/><clipPath id="5180c335c8"><path d="M 4.078125 4.746094 L 23.367188 4.746094 L 23.367188 24.339844 L 4.078125 24.339844 Z M 4.078125 4.746094 " clip-rule="nonzero"/></clipPath><clipPath id="38f51ceaf8"><path d="M 5.527344 4.746094 L 21.917969 4.746094 C 22.71875 4.746094 23.367188 5.394531 23.367188 6.195312 L 23.367188 22.835938 C 23.367188 23.636719 22.71875 24.289062 21.917969 24.289062 L 5.527344 24.289062 C 4.726562 24.289062 4.078125 23.636719 4.078125 22.835938 L 4.078125 6.195312 C 4.078125 5.394531 4.726562 4.746094 5.527344 4.746094 Z M 5.527344 4.746094 " clip-rule="nonzero"/></clipPath><clipPath id="2ef6d775c0"><path d="M 5.390625 7.457031 L 22.085938 7.457031 L 22.085938 21.246094 L 5.390625 21.246094 Z M 5.390625 7.457031 " clip-rule="nonzero"/></clipPath></defs><g clip-path="url(#5180c335c8)"><g clip-path="url(#38f51ceaf8)"><path fill="#5e17eb" d="M 4.078125 4.746094 L 23.367188 4.746094 L 23.367188 24.261719 L 4.078125 24.261719 Z M 4.078125 4.746094 " fill-opacity="1" fill-rule="nonzero"/></g></g><g clip-path="url(#2ef6d775c0)"><path fill="#ffffff" d="M 15.234375 11.734375 L 5.394531 21.574219 L 5.394531 17.304688 L 15.234375 7.457031 Z M 12.207031 17.289062 L 12.207031 21.574219 L 19.019531 14.769531 L 19.019531 21.574219 L 22.050781 18.546875 L 22.050781 7.457031 Z M 12.207031 17.289062 " fill-opacity="1" fill-rule="nonzero"/></g><g fill="#ffffff" fill-opacity="1"><g transform="translate(28.015356, 20.806427)"><g><path d="M 1.65625 0 L 3.625 0 L 3.625 -9.53125 L 7.15625 -4.28125 L 8.265625 -4.28125 L 11.796875 -9.53125 L 11.796875 0 L 13.734375 0 L 13.734375 -13.546875 L 12.1875 -13.546875 L 7.71875 -6.96875 L 3.25 -13.546875 L 1.65625 -13.546875 Z M 1.65625 0 "/></g></g></g><g fill="#ffffff" fill-opacity="1"><g transform="translate(43.396381, 20.806427)"><g><path d="M 0.671875 -6.765625 C 0.671875 -2.859375 3.796875 0.25 7.703125 0.25 C 11.609375 0.25 14.734375 -2.859375 14.734375 -6.765625 C 14.734375 -10.671875 11.609375 -13.8125 7.703125 -13.8125 C 3.796875 -13.8125 0.671875 -10.671875 0.671875 -6.765625 Z M 2.6875 -6.765625 C 2.6875 -9.5625 4.90625 -11.796875 7.703125 -11.796875 C 10.484375 -11.796875 12.734375 -9.5625 12.734375 -6.765625 C 12.734375 -3.984375 10.484375 -1.765625 7.703125 -1.765625 C 4.90625 -1.765625 2.6875 -3.984375 2.6875 -6.765625 Z M 2.6875 -6.765625 "/></g></g></g><g fill="#ffffff" fill-opacity="1"><g transform="translate(58.951537, 20.806427)"><g><path d="M 9.34375 -8.15625 L 3.625 -8.15625 L 3.625 -13.65625 L 1.65625 -13.65625 L 1.65625 0 L 3.625 0 L 3.625 -6.234375 L 9.34375 -6.234375 L 9.34375 0 L 11.3125 0 L 11.3125 -13.65625 L 9.34375 -13.65625 Z M 9.34375 -8.15625 "/></g></g></g><g fill="#ffffff" fill-opacity="1"><g transform="translate(71.933512, 20.806427)"><g><path d="M 8.4375 -10.046875 L 10.375 -10.109375 C 10.015625 -12.59375 7.859375 -13.671875 5.765625 -13.671875 C 4.203125 -13.671875 2.578125 -13.0625 1.65625 -11.875 C 1.15625 -11.21875 0.90625 -10.453125 0.90625 -9.640625 C 0.90625 -9.53125 0.921875 -9.421875 0.921875 -9.296875 L 0.921875 -9.328125 C 1.140625 -6.5 3.625 -6.03125 5.71875 -5.828125 C 7.078125 -5.6875 8.46875 -5.515625 8.703125 -4.484375 C 8.75 -4.3125 8.765625 -4.15625 8.765625 -4.03125 C 8.765625 -2.625 7.171875 -1.8125 5.71875 -1.8125 C 4.46875 -1.8125 2.9375 -2.46875 2.8125 -3.734375 L 2.8125 -3.65625 L 2.78125 -3.953125 L 0.8125 -3.90625 L 0.828125 -3.546875 C 1.078125 -1.125 3.625 0.109375 5.703125 0.109375 C 8.140625 0.109375 10.734375 -1.390625 10.734375 -4 C 10.734375 -4.28125 10.703125 -4.609375 10.640625 -4.890625 C 10.109375 -7.0625 7.8125 -7.546875 5.953125 -7.78125 C 4.453125 -7.90625 2.875 -8.109375 2.875 -9.671875 C 2.875 -10.0625 2.984375 -10.453125 3.21875 -10.734375 C 3.765625 -11.453125 4.796875 -11.765625 5.71875 -11.765625 C 6.890625 -11.765625 8.15625 -11.234375 8.4375 -10.046875 Z M 8.4375 -10.046875 "/></g></g></g><g fill="#ffffff" fill-opacity="1"><g transform="translate(83.445102, 20.806427)"><g><path d="M 6.125 -11.859375 L 8.640625 -11.859375 L 8.640625 -13.65625 L 1.65625 -13.65625 L 1.65625 -11.859375 L 4.171875 -11.859375 L 4.171875 -1.8125 L 1.65625 -1.8125 L 1.65625 0 L 8.640625 0 L 8.640625 -1.8125 L 6.125 -1.8125 Z M 6.125 -11.859375 "/></g></g></g><g fill="#ffffff" fill-opacity="1"><g transform="translate(93.737818, 20.806427)"><g><path d="M 1.65625 -13.546875 L 1.65625 0 L 3.625 0 L 3.625 -9.453125 L 10.15625 0 L 11.703125 0 L 11.703125 -13.546875 L 9.765625 -13.546875 L 9.765625 -4 L 3.171875 -13.546875 Z M 1.65625 -13.546875 "/></g></g></g></svg>